<svg viewBox="0 0 230 60" fill="none" xmlns="http://www.w3.org/2000/svg"><g clip-path="url(#clip0)"><path d="M53.294 51.53v2h3.06v.646h-3.06v1.942h3.412v.647h-4.118V50.94h4.118v.588h-3.412zm13 5.235h-.647v-4.353l-1.941 3.235h-.47l-2-3.235.058 4.353h-.706V50.94h.53l2.353 3.883 2.353-3.883h.47v5.824zm8.53-3.883c0 1.236-.942 2-2.353 2h-1.294v1.883h-.706v-5.883h2.058c1.353.06 2.295.824 2.295 2zm-.706 0c0-.764-.647-1.353-1.588-1.353h-1.353v2.706h1.352c.942 0 1.589-.53 1.589-1.353zm10.235.942a3.038 3.038 0 01-3.059 3.058 3.038 3.038 0 01-3.059-3.058 3.038 3.038 0 013.06-3.06c1.705.06 3.058 1.412 3.058 3.06zm-.706 0c0-1.353-1.059-2.412-2.353-2.412-1.353 0-2.353 1.059-2.353 2.412 0 1.352 1.06 2.411 2.353 2.411 1.353 0 2.353-1.059 2.353-2.411zm12.294-2.883l-2 5.883h-.706l-1.588-4.706-1.588 4.706h-.647l-2-5.883h.706l1.588 4.824 1.647-4.824h.588l1.647 4.824 1.589-4.824h.764zm4.236.589v2h3.117v.646h-3.117v1.942h3.411v.647H99.53V50.94h4.058v.588h-3.411zm9.529 3.176h-1.471v2.117h-.705v-5.882h2.235c1.294 0 2.235.706 2.235 1.883 0 .94-.588 1.588-1.529 1.823l1.764 2.177h-.823l-1.706-2.118zm-1.529-.647h1.529c.941 0 1.588-.47 1.588-1.235 0-.765-.647-1.236-1.588-1.236h-1.529v2.47zm8.353-3.118h-.706v5.883h.706V50.94zm9.176 0v5.824h-.588l-3.765-4.589v4.589h-.647V50.94h.529L125 55.588v-4.647h.706zm9.412 2.765v3.117h-.53l-.059-1.176c-.411.765-1.176 1.294-2.235 1.294-1.706 0-3.059-1.353-3.059-3 0-1.765 1.353-3.059 3.059-3.059 1.294 0 2.471.706 2.765 2.06h-.706c-.294-.942-1.176-1.413-2.059-1.413-1.353 0-2.412 1-2.412 2.412 0 1.294 1 2.353 2.353 2.353 1.177 0 1.942-.823 2.118-1.941h-2.176v-.647h2.941zM148.765 52h-2v4.765h-1.177V52h-2v-1.059h5.177V52zm5.824 2.882h-1.236v1.883h-1.176v-5.883h2.47c1.294 0 2.294.765 2.294 2 0 .824-.47 1.47-1.117 1.765l1.529 2.118h-1.412l-1.352-1.883zm-1.177-1.058h1.235c.647 0 1.177-.353 1.177-.942 0-.588-.53-.94-1.177-.94h-1.235v1.882zm11.353 1.764h-2.706l-.471 1.177h-1.235l2.529-5.883H164l2.529 5.883h-1.235l-.529-1.177zm-.471-1l-.941-2.235-.941 2.235h1.882zm10.824-3.647v5.824h-.941l-3.118-3.647v3.647h-1.176V50.94h.823l3.235 3.765V50.94h1.177zm8.47 1.765h-1.176c-.059-.53-.412-.883-1.177-.883-.647 0-1.058.236-1.058.706 0 .412.294.589.882.706l.706.118c1.118.235 1.823.647 1.823 1.647 0 1.118-.941 1.824-2.294 1.824-1.47 0-2.47-.765-2.529-2.06h1.176c.118.589.647 1 1.471 1 .647 0 1-.235 1-.646 0-.236-.118-.53-.765-.647l-.941-.177c-1.176-.235-1.647-.823-1.647-1.706 0-1.117.882-1.823 2.235-1.823.883.059 2.177.411 2.294 1.94zm4.824-1.765h-1.177v5.883h1.177V50.94zM196.941 52h-2v4.765h-1.176V52h-1.941v-1.059h5.117V52zm4.53-1.059h-1.177v5.883h1.177V50.94zm9.706 2.883a3.038 3.038 0 01-3.059 3.058 3.038 3.038 0 01-3.059-3.058 3.038 3.038 0 013.059-3.06c1.706.06 3.059 1.412 3.059 3.06zm-1.177 0c0-1.06-.764-1.942-1.882-1.942-1.059 0-1.882.883-1.882 1.942 0 1.058.764 1.94 1.882 1.94 1.118 0 1.882-.882 1.882-1.94zm10.059-2.883v5.824h-.882L216 53.118v3.647h-1.176V50.94h.882l3.177 3.765V50.94h1.176zm8.529 1.765h-1.176c-.059-.53-.412-.883-1.177-.883-.647 0-1.058.236-1.058.706 0 .412.294.589.882.706l.706.118c1.118.235 1.823.647 1.823 1.647 0 1.118-.941 1.824-2.294 1.824-1.47 0-2.47-.765-2.529-2.06h1.176c.118.589.647 1 1.471 1 .647 0 1-.235 1-.646 0-.236-.118-.53-.765-.647l-.941-.177c-1.176-.235-1.647-.823-1.647-1.706 0-1.117.882-1.823 2.235-1.823.824.059 2.118.411 2.294 1.94zM73.765 27.353v-4.47H52.47v22.293h21.294v-4.47h-16.53v-4.647h13.942v-4.47H57.235v-4.236h16.53zm34.823 6.941c0-6.412-5.058-11.647-12.588-11.647h-1.647c-7.47 0-12.588 5.235-12.588 11.647s5.059 11.647 12.588 11.647h1.47c2.295.059 4.765.235 9.765 1l2.53-3.823a106.233 106.233 0 01-3.059-.53c2.235-2.059 3.529-5 3.529-8.294zm-22.058 0c0-4.059 3.176-6.882 7.764-6.882h1.647c4.589 0 7.765 2.823 7.765 6.882 0 4.059-3.176 6.883-7.765 6.883h-1.647c-4.53.058-7.764-2.824-7.764-6.883zm52.117-11.412v13.06c0 2.882-1 5.293-2.706 7-1.706 1.705-4.117 2.705-7 2.705h-2.882c-5.706 0-9.706-4-9.706-9.706V22.882h4.765v13.06c0 3.176 2.059 5.234 4.941 5.234h2.882c2.883 0 4.941-2.058 4.941-5.235V22.882h4.765zm26.294 22.294h5.177l-9.824-22.294h-5.823l-9.765 22.294h5.235l2.236-5.058h10.588l2.176 5.058zm-10.882-9.411l3.176-7.177h.412l3.177 7.177h-6.765zm46.588-12.883v22.294h-4.117l-13.883-14.764v14.764h-4.764V22.882h4.235l13.765 14.589V22.882h4.764zm15.765 7.059c-.235-.294-.353-.588-.353-.941 0-1.294 1.059-2.235 3.882-2.235 1.471 0 2.647.47 3.53.94.47.295.882.59 1.294.942l2.647-4c-.294-.176-.765-.47-1.118-.647-1.47-.765-3.647-1.53-6.529-1.53-5.941 0-9.471 3-9.471 6.53 0 .47.059.882.118 1.235 1.353 6.353 12.882 5.06 12.882 8.589 0 1.411-1.294 2.529-4.294 2.529a9.305 9.305 0 01-1.882-.177c-1.059-.235-2-.588-2.647-1-.647-.352-1.177-.764-1.589-1.235l-3.705 3.177c.647.647 1.47 1.235 2.47 1.764.53.294 1.177.589 1.941.824 1.471.53 3.353.882 5.647.882 6.118 0 9.824-3.176 9.824-6.823.059-6.942-10.53-6.294-12.647-8.824z" fill="#0F2437"/><path d="M47 16.823L57.235 1.294c-42.764-6.118-66 14.588-53.53 49C.177 27.177 14.47 13.941 47 16.824z" fill="url(#paint0_linear)"/><path d="M6.765 54.941C8.176 36.471 19 31 36.94 32l5.824-8.823c-23.824-2.353-40.412 7.882-36 31.764z" fill="url(#paint1_linear)"/><path d="M9.412 59.53C12.529 49 18.588 44.058 28.706 45.117l4.235-6.412c-13.824-1.647-23.53 4.765-23.53 20.823z" fill="url(#paint2_linear)"/></g><defs><linearGradient id="paint0_linear" x1="42.829" y1="20.093" x2="-2.994" y2="30.151" gradientUnits="userSpaceOnUse"><stop offset=".241" stop-color="#71BE96"/><stop offset=".44" stop-color="#6FBC95"/><stop offset=".552" stop-color="#68B391"/><stop offset=".642" stop-color="#5EA58A"/><stop offset=".721" stop-color="#509381"/><stop offset=".792" stop-color="#417D75"/><stop offset=".858" stop-color="#316365"/><stop offset=".919" stop-color="#214853"/><stop offset=".976" stop-color="#142F40"/><stop offset="1" stop-color="#0F2437"/></linearGradient><linearGradient id="paint1_linear" x1="45.84" y1="32.981" x2=".1" y2="43.021" gradientUnits="userSpaceOnUse"><stop offset=".241" stop-color="#71BE96"/><stop offset=".44" stop-color="#6FBC95"/><stop offset=".552" stop-color="#68B391"/><stop offset=".642" stop-color="#5EA58A"/><stop offset=".721" stop-color="#509381"/><stop offset=".792" stop-color="#417D75"/><stop offset=".858" stop-color="#316365"/><stop offset=".919" stop-color="#214853"/><stop offset=".976" stop-color="#142F40"/><stop offset="1" stop-color="#0F2437"/></linearGradient><linearGradient id="paint2_linear" x1="47.874" y1="42.363" x2="2.138" y2="52.403" gradientUnits="userSpaceOnUse"><stop offset=".241" stop-color="#71BE96"/><stop offset=".44" stop-color="#6FBC95"/><stop offset=".552" stop-color="#68B391"/><stop offset=".642" stop-color="#5EA58A"/><stop offset=".721" stop-color="#509381"/><stop offset=".792" stop-color="#417D75"/><stop offset=".858" stop-color="#316365"/><stop offset=".919" stop-color="#214853"/><stop offset=".976" stop-color="#142F40"/><stop offset="1" stop-color="#0F2437"/></linearGradient><clipPath id="clip0"><path fill="#fff" d="M0 0h229.412v60H0z"/></clipPath></defs></svg>